<mxfile host="Electron" modified="2025-03-23T13:54:34.984Z" agent="Mozilla/5.0 (X11; Linux x86_64) AppleWebKit/537.36 (KHTML, like Gecko) draw.io/21.2.1 Chrome/112.0.5615.87 Electron/24.1.2 Safari/537.36" etag="Q6VrmDLA2IOcyHJz_vXC" version="21.2.1" type="device">
  <diagram name="Seite-1" id="eCgq98eG9K1OQy5Iakyk">
    <mxGraphModel dx="1050" dy="667" grid="1" gridSize="10" guides="1" tooltips="1" connect="1" arrows="1" fold="1" page="1" pageScale="1" pageWidth="827" pageHeight="1169" math="0" shadow="0">
      <root>
        <mxCell id="0" />
        <mxCell id="1" parent="0" />
        <mxCell id="GRVIOsaEOY3G-abxkChL-11" value="" style="rounded=0;whiteSpace=wrap;html=1;strokeWidth=2;fillColor=#f5f5f5;fontColor=#333333;strokeColor=#666666;" vertex="1" parent="1">
          <mxGeometry x="233" y="250" width="380" height="350" as="geometry" />
        </mxCell>
        <mxCell id="GRVIOsaEOY3G-abxkChL-10" value="" style="rounded=0;whiteSpace=wrap;html=1;strokeWidth=2;fillColor=#f5f5f5;fontColor=#333333;strokeColor=#666666;" vertex="1" parent="1">
          <mxGeometry x="233" y="80" width="380" height="130" as="geometry" />
        </mxCell>
        <mxCell id="DtF1miCVM-Mhuby2W57F-3" value="" style="edgeStyle=orthogonalEdgeStyle;rounded=0;orthogonalLoop=1;jettySize=auto;html=1;strokeWidth=2;" parent="1" source="DtF1miCVM-Mhuby2W57F-1" target="DtF1miCVM-Mhuby2W57F-2" edge="1">
          <mxGeometry relative="1" as="geometry" />
        </mxCell>
        <mxCell id="DtF1miCVM-Mhuby2W57F-1" value="Off" style="rounded=0;whiteSpace=wrap;html=1;fillColor=#d5e8d4;strokeColor=#82b366;strokeWidth=2;" parent="1" vertex="1">
          <mxGeometry x="393" y="420" width="80" height="40" as="geometry" />
        </mxCell>
        <mxCell id="DtF1miCVM-Mhuby2W57F-7" value="" style="edgeStyle=orthogonalEdgeStyle;rounded=0;orthogonalLoop=1;jettySize=auto;html=1;strokeWidth=2;" parent="1" source="DtF1miCVM-Mhuby2W57F-2" target="DtF1miCVM-Mhuby2W57F-6" edge="1">
          <mxGeometry relative="1" as="geometry" />
        </mxCell>
        <mxCell id="QjVelh0UXRExZnhyDjtQ-10" style="edgeStyle=orthogonalEdgeStyle;rounded=0;orthogonalLoop=1;jettySize=auto;html=1;exitX=0;exitY=0.5;exitDx=0;exitDy=0;entryX=0.5;entryY=0;entryDx=0;entryDy=0;strokeWidth=2;" parent="1" source="DtF1miCVM-Mhuby2W57F-2" target="DtF1miCVM-Mhuby2W57F-1" edge="1">
          <mxGeometry relative="1" as="geometry">
            <Array as="points">
              <mxPoint x="373" y="500" />
              <mxPoint x="373" y="400" />
              <mxPoint x="433" y="400" />
            </Array>
          </mxGeometry>
        </mxCell>
        <mxCell id="DtF1miCVM-Mhuby2W57F-2" value="Ventilator" style="rounded=0;whiteSpace=wrap;html=1;fillColor=#fff2cc;strokeColor=#d6b656;strokeWidth=2;" parent="1" vertex="1">
          <mxGeometry x="393" y="480" width="80" height="40" as="geometry" />
        </mxCell>
        <mxCell id="DtF1miCVM-Mhuby2W57F-6" value="Heater" style="rounded=0;whiteSpace=wrap;html=1;fillColor=#f8cecc;strokeColor=#b85450;strokeWidth=2;" parent="1" vertex="1">
          <mxGeometry x="393" y="550" width="80" height="40" as="geometry" />
        </mxCell>
        <mxCell id="DtF1miCVM-Mhuby2W57F-10" style="edgeStyle=orthogonalEdgeStyle;rounded=0;orthogonalLoop=1;jettySize=auto;html=1;exitX=0;exitY=0.5;exitDx=0;exitDy=0;entryX=0.5;entryY=0;entryDx=0;entryDy=0;strokeWidth=2;" parent="1" source="DtF1miCVM-Mhuby2W57F-6" target="DtF1miCVM-Mhuby2W57F-1" edge="1">
          <mxGeometry relative="1" as="geometry">
            <Array as="points">
              <mxPoint x="373" y="570" />
              <mxPoint x="373" y="400" />
              <mxPoint x="433" y="400" />
            </Array>
          </mxGeometry>
        </mxCell>
        <mxCell id="QjVelh0UXRExZnhyDjtQ-4" value="" style="edgeStyle=orthogonalEdgeStyle;rounded=0;orthogonalLoop=1;jettySize=auto;html=1;strokeWidth=2;" parent="1" source="QjVelh0UXRExZnhyDjtQ-2" target="QjVelh0UXRExZnhyDjtQ-3" edge="1">
          <mxGeometry relative="1" as="geometry" />
        </mxCell>
        <mxCell id="QjVelh0UXRExZnhyDjtQ-2" value="getData()" style="rounded=0;whiteSpace=wrap;html=1;fillColor=#e1d5e7;strokeColor=#9673a6;strokeWidth=2;" parent="1" vertex="1">
          <mxGeometry x="253" y="320" width="100" height="40" as="geometry" />
        </mxCell>
        <mxCell id="QjVelh0UXRExZnhyDjtQ-6" value="" style="edgeStyle=orthogonalEdgeStyle;rounded=0;orthogonalLoop=1;jettySize=auto;html=1;strokeWidth=2;" parent="1" source="QjVelh0UXRExZnhyDjtQ-3" target="QjVelh0UXRExZnhyDjtQ-5" edge="1">
          <mxGeometry relative="1" as="geometry" />
        </mxCell>
        <mxCell id="QjVelh0UXRExZnhyDjtQ-3" value="setHeater()" style="rounded=0;whiteSpace=wrap;html=1;fillColor=#e1d5e7;strokeColor=#9673a6;strokeWidth=2;" parent="1" vertex="1">
          <mxGeometry x="373" y="320" width="100" height="40" as="geometry" />
        </mxCell>
        <mxCell id="GRVIOsaEOY3G-abxkChL-21" style="edgeStyle=orthogonalEdgeStyle;rounded=0;orthogonalLoop=1;jettySize=auto;html=1;exitX=1;exitY=0.5;exitDx=0;exitDy=0;entryX=0.5;entryY=0;entryDx=0;entryDy=0;strokeWidth=2;" edge="1" parent="1" source="QjVelh0UXRExZnhyDjtQ-5" target="QjVelh0UXRExZnhyDjtQ-2">
          <mxGeometry relative="1" as="geometry">
            <Array as="points">
              <mxPoint x="603" y="340" />
              <mxPoint x="603" y="300" />
              <mxPoint x="303" y="300" />
            </Array>
          </mxGeometry>
        </mxCell>
        <mxCell id="QjVelh0UXRExZnhyDjtQ-5" value="serialReport()" style="rounded=0;whiteSpace=wrap;html=1;fillColor=#dae8fc;strokeColor=#6c8ebf;strokeWidth=2;" parent="1" vertex="1">
          <mxGeometry x="493" y="320" width="100" height="40" as="geometry" />
        </mxCell>
        <mxCell id="QjVelh0UXRExZnhyDjtQ-13" value="" style="endArrow=none;html=1;rounded=0;strokeWidth=2;" parent="1" edge="1">
          <mxGeometry width="50" height="50" relative="1" as="geometry">
            <mxPoint x="333" y="400" as="sourcePoint" />
            <mxPoint x="412" y="360" as="targetPoint" />
          </mxGeometry>
        </mxCell>
        <mxCell id="QjVelh0UXRExZnhyDjtQ-14" value="" style="endArrow=none;html=1;rounded=0;entryX=0.5;entryY=1;entryDx=0;entryDy=0;strokeWidth=2;" parent="1" target="QjVelh0UXRExZnhyDjtQ-3" edge="1">
          <mxGeometry width="50" height="50" relative="1" as="geometry">
            <mxPoint x="493" y="400" as="sourcePoint" />
            <mxPoint x="422" y="370" as="targetPoint" />
          </mxGeometry>
        </mxCell>
        <mxCell id="GRVIOsaEOY3G-abxkChL-2" value="" style="edgeStyle=orthogonalEdgeStyle;rounded=0;orthogonalLoop=1;jettySize=auto;html=1;strokeWidth=2;" edge="1" parent="1" source="GRVIOsaEOY3G-abxkChL-3">
          <mxGeometry relative="1" as="geometry">
            <mxPoint x="373" y="170" as="targetPoint" />
          </mxGeometry>
        </mxCell>
        <mxCell id="GRVIOsaEOY3G-abxkChL-9" value="" style="edgeStyle=orthogonalEdgeStyle;rounded=0;orthogonalLoop=1;jettySize=auto;html=1;fillColor=#d80073;strokeColor=#A50040;strokeWidth=2;entryX=0;entryY=0.5;entryDx=0;entryDy=0;" edge="1" parent="1" source="GRVIOsaEOY3G-abxkChL-3" target="QjVelh0UXRExZnhyDjtQ-2">
          <mxGeometry relative="1" as="geometry">
            <mxPoint x="253" y="290" as="targetPoint" />
            <Array as="points">
              <mxPoint x="303" y="230" />
              <mxPoint x="223" y="230" />
              <mxPoint x="223" y="340" />
            </Array>
          </mxGeometry>
        </mxCell>
        <mxCell id="GRVIOsaEOY3G-abxkChL-3" value="getData()" style="rounded=0;whiteSpace=wrap;html=1;fillColor=#e1d5e7;strokeColor=#9673a6;strokeWidth=2;" vertex="1" parent="1">
          <mxGeometry x="253" y="150" width="100" height="40" as="geometry" />
        </mxCell>
        <mxCell id="GRVIOsaEOY3G-abxkChL-8" value="" style="edgeStyle=orthogonalEdgeStyle;rounded=0;orthogonalLoop=1;jettySize=auto;html=1;strokeWidth=2;" edge="1" parent="1" source="GRVIOsaEOY3G-abxkChL-6" target="GRVIOsaEOY3G-abxkChL-7">
          <mxGeometry relative="1" as="geometry" />
        </mxCell>
        <mxCell id="GRVIOsaEOY3G-abxkChL-6" value="serialReport()" style="rounded=0;whiteSpace=wrap;html=1;fillColor=#dae8fc;strokeColor=#6c8ebf;strokeWidth=2;" vertex="1" parent="1">
          <mxGeometry x="373" y="150" width="100" height="40" as="geometry" />
        </mxCell>
        <mxCell id="GRVIOsaEOY3G-abxkChL-20" style="edgeStyle=orthogonalEdgeStyle;rounded=0;orthogonalLoop=1;jettySize=auto;html=1;exitX=1;exitY=0.5;exitDx=0;exitDy=0;entryX=0.5;entryY=0;entryDx=0;entryDy=0;strokeWidth=2;" edge="1" parent="1" source="GRVIOsaEOY3G-abxkChL-7" target="GRVIOsaEOY3G-abxkChL-3">
          <mxGeometry relative="1" as="geometry">
            <Array as="points">
              <mxPoint x="603" y="170" />
              <mxPoint x="603" y="130" />
              <mxPoint x="303" y="130" />
            </Array>
          </mxGeometry>
        </mxCell>
        <mxCell id="GRVIOsaEOY3G-abxkChL-7" value="writeDatabase()" style="rounded=0;whiteSpace=wrap;html=1;fillColor=#dae8fc;strokeColor=#6c8ebf;strokeWidth=2;" vertex="1" parent="1">
          <mxGeometry x="493" y="150" width="100" height="40" as="geometry" />
        </mxCell>
        <mxCell id="GRVIOsaEOY3G-abxkChL-13" value="" style="edgeStyle=orthogonalEdgeStyle;rounded=0;orthogonalLoop=1;jettySize=auto;html=1;fillColor=#d80073;strokeColor=#A50040;strokeWidth=2;" edge="1" parent="1" source="GRVIOsaEOY3G-abxkChL-12" target="GRVIOsaEOY3G-abxkChL-3">
          <mxGeometry relative="1" as="geometry" />
        </mxCell>
        <mxCell id="GRVIOsaEOY3G-abxkChL-12" value="Shelly" style="ellipse;shape=cloud;whiteSpace=wrap;html=1;fillColor=#e1d5e7;strokeColor=#9673a6;strokeWidth=2;" vertex="1" parent="1">
          <mxGeometry x="80" y="130" width="120" height="80" as="geometry" />
        </mxCell>
        <mxCell id="GRVIOsaEOY3G-abxkChL-14" value="optional" style="text;html=1;strokeColor=none;fillColor=none;align=center;verticalAlign=middle;whiteSpace=wrap;rounded=0;strokeWidth=2;" vertex="1" parent="1">
          <mxGeometry x="513" y="180" width="60" height="30" as="geometry" />
        </mxCell>
        <mxCell id="GRVIOsaEOY3G-abxkChL-15" value="debug" style="text;html=1;strokeColor=none;fillColor=none;align=center;verticalAlign=middle;whiteSpace=wrap;rounded=0;strokeWidth=2;" vertex="1" parent="1">
          <mxGeometry x="513" y="350" width="60" height="30" as="geometry" />
        </mxCell>
        <mxCell id="GRVIOsaEOY3G-abxkChL-16" value="debug" style="text;html=1;strokeColor=none;fillColor=none;align=center;verticalAlign=middle;whiteSpace=wrap;rounded=0;strokeWidth=2;" vertex="1" parent="1">
          <mxGeometry x="393" y="180" width="60" height="30" as="geometry" />
        </mxCell>
        <mxCell id="GRVIOsaEOY3G-abxkChL-17" value="WiFi" style="text;html=1;strokeColor=none;fillColor=none;align=center;verticalAlign=middle;whiteSpace=wrap;rounded=0;strokeWidth=2;fontColor=#FF0080;" vertex="1" parent="1">
          <mxGeometry x="192" y="163" width="46" height="30" as="geometry" />
        </mxCell>
        <mxCell id="GRVIOsaEOY3G-abxkChL-19" value="Serial" style="text;html=1;strokeColor=none;fillColor=none;align=center;verticalAlign=middle;whiteSpace=wrap;rounded=0;strokeWidth=2;fontColor=#FF0080;" vertex="1" parent="1">
          <mxGeometry x="293" y="210" width="60" height="30" as="geometry" />
        </mxCell>
        <mxCell id="GRVIOsaEOY3G-abxkChL-22" value="main loop" style="text;html=1;strokeColor=none;fillColor=none;align=center;verticalAlign=middle;whiteSpace=wrap;rounded=0;strokeWidth=2;" vertex="1" parent="1">
          <mxGeometry x="544" y="294" width="60" height="30" as="geometry" />
        </mxCell>
        <mxCell id="GRVIOsaEOY3G-abxkChL-24" value="main loop" style="text;html=1;strokeColor=none;fillColor=none;align=center;verticalAlign=middle;whiteSpace=wrap;rounded=0;strokeWidth=2;" vertex="1" parent="1">
          <mxGeometry x="544" y="123" width="60" height="30" as="geometry" />
        </mxCell>
        <mxCell id="GRVIOsaEOY3G-abxkChL-25" value="&lt;font style=&quot;font-size: 16px;&quot;&gt;&lt;b&gt;Arduino&lt;/b&gt;&lt;/font&gt;" style="text;html=1;strokeColor=none;fillColor=none;align=center;verticalAlign=middle;whiteSpace=wrap;rounded=0;" vertex="1" parent="1">
          <mxGeometry x="243" y="260" width="60" height="30" as="geometry" />
        </mxCell>
        <mxCell id="GRVIOsaEOY3G-abxkChL-26" value="&lt;font style=&quot;font-size: 16px;&quot;&gt;&lt;b&gt;ESP8266&lt;/b&gt;&lt;/font&gt;" style="text;html=1;strokeColor=none;fillColor=none;align=center;verticalAlign=middle;whiteSpace=wrap;rounded=0;" vertex="1" parent="1">
          <mxGeometry x="233" y="90" width="90" height="30" as="geometry" />
        </mxCell>
      </root>
    </mxGraphModel>
  </diagram>
</mxfile>
